<svg width="1920" height="253" viewBox="0 0 1920 253" fill="none" xmlns="http://www.w3.org/2000/svg">
<path d="M0 48.0188L64.3803 33.9254C166.147 11.6476 271.821 14.626 372.172 42.6004L421.615 56.3833C511.1 81.3289 605.978 79.1434 694.22 50.1037C783.769 20.6339 880.12 18.8293 970.71 44.9252L1032.66 62.7693C1105.88 83.8641 1182.19 92.2471 1258.25 87.554L1367.16 80.8345C1410.72 78.1463 1453.92 71.1856 1496.13 60.0525L1532.25 50.525C1645.63 20.6189 1764.89 21.1461 1878 52.0532L1920 63.5283V215.737L0 222V48.0188Z" fill="url(#paint0_linear_2_985)" fill-opacity="0.5"/>
<path d="M0 102.451L130.425 67.8847C210.063 46.7788 294.215 50.1947 371.88 77.6858L411.517 91.7162C481.763 116.581 558.745 114.44 627.5 85.7094C697.254 56.561 775.437 54.7955 846.436 80.7655L870.803 89.6785C942.514 115.909 1021.28 115.369 1092.63 88.1589C1155.05 64.3505 1223.41 60.8773 1287.92 78.2354L1324.58 88.0984C1402.93 109.179 1486.03 104.1 1561.23 73.6344C1628.29 46.4671 1701.81 39.4174 1772.81 53.3463L1920 82.2222V258H0V102.451Z" fill="url(#paint1_linear_2_985)"/>
<path d="M0 52L130.621 80.5044C212.231 98.3134 296.838 97.1733 377.938 77.1716V77.1716C445.361 60.543 515.336 56.9202 584.116 66.4971L631.305 73.0677C693.676 81.7522 756.963 81.5559 819.278 72.4847L849.601 68.0707C922.582 57.4469 996.892 60.2937 1068.85 76.4698V76.4698C1156.94 96.2734 1248.35 96.0539 1336.34 75.8274L1338.92 75.2347C1405.83 59.8535 1474.85 55.7865 1543.11 63.2024L1607.53 70.201C1655.26 75.3868 1703.41 75.4011 1751.15 70.2437L1920 52V259H0V52Z" fill="url(#paint2_linear_2_985)" fill-opacity="0.8"/>
<defs>
<linearGradient id="paint0_linear_2_985" x1="-100.737" y1="109.26" x2="2331.62" y2="109.26" gradientUnits="userSpaceOnUse">
<stop stop-color="#D732C7"/>
<stop offset="0.5" stop-color="#D332D7"/>
<stop offset="1" stop-color="#FFA1FB"/>
</linearGradient>
<linearGradient id="paint1_linear_2_985" x1="0" y1="145" x2="1920" y2="145" gradientUnits="userSpaceOnUse">
<stop stop-color="#E167D5"/>
<stop offset="0.5" stop-color="#D732C6"/>
<stop offset="1" stop-color="#E167DC"/>
</linearGradient>
<linearGradient id="paint2_linear_2_985" x1="0" y1="155.5" x2="1920" y2="155.5" gradientUnits="userSpaceOnUse">
<stop stop-color="#D732BC"/>
<stop offset="0.5" stop-color="#E167D5"/>
<stop offset="1" stop-color="#C9A8FF"/>
<stop offset="1" stop-color="#FFA8EC"/>
</linearGradient>
</defs>
</svg>
